# xmcd CD database file
# Copyright (C) 1996 Ti Kan
#
# Track frame offsets:
# 	150
# 	13755
# 	29657
# 	42440
# 	53625
# 	55722
# 	70700
# 	87115
# 	104832
# 	121202
# 	133755
# 	147515
# 	164900
#
# Disc length: 2399 seconds
#
# Revision: 1
# Processed by: cddbd v1.4b41PL1 Copyright (c) Steve Scherf et al.
# Submitted via: DiscPlay 3.4.1
#
DISCID=c0095d0d
DTITLE=Various Artist - Will You Dance With This Cowboy?
DYEAR=1900
DGENRE=
TTITLE0=Hello Again
TTITLE1=Rock Me Gently
TTITLE2=Start Of Something New
TTITLE3=Ida Red Likes The Boogie
TTITLE4=Talks About "Georgia On A Fast Train"
TTITLE5=Georgia On A Fast Train
TTITLE6=Dancing In The Ring
TTITLE7=The Rhythm Of Romance
TTITLE8='A' Tom Bom
TTITLE9=The Loneliest Star In Texas
TTITLE10=Rockin' My Redneck Life Away
TTITLE11=Honk On Bobo
TTITLE12=Dance With This Old Cowboy
EXTD=
EXTT0=
EXTT1=
EXTT2=
EXTT3=
EXTT4=
EXTT5=
EXTT6=
EXTT7=
EXTT8=
EXTT9=
EXTT10=
EXTT11=
EXTT12=
PLAYORDER=
